# xmcd CD database file
#
# Track frame offsets:
#	150
#	22120
#	36731
#	67637
#	78385
#	100878
#	119537
#	147651
#	161715
#	175303
#	191871
#	212253
#	231351
#
# Disc length: 3344 seconds
#
# Revision: 0
# Processed by: cddbd v1.5.1PL0 Copyright (c) Steve Scherf et al.
# Submitted via: CDex 1.51
#
DISCID=be0d0e0d
DTITLE=Rosa Passos - Amorosa (Borders Version)
DYEAR=2004
DGENRE=Jazz
TTITLE0=Voce Vai Ver
TTITLE1=Wave
TTITLE2=Besame Mucho
TTITLE3=Pra que Discutir com Madame
TTITLE4=Lobo Bobo
TTITLE5=O Pato
TTITLE6=Retrato em Branco e Preto
TTITLE7=Eu Sambo Mesmo
TTITLE8=Essa e Pr'o Joao
TTITLE9=Que Reste-t-il de nos Amours
TTITLE10=S'Wonderful
TTITLE11=Chega de Saudade
TTITLE12=Triste
EXTD=YEAR: 2004
EXTT0=
EXTT1=
EXTT2=
EXTT3=
EXTT4=
EXTT5=
EXTT6=
EXTT7=
EXTT8=
EXTT9=
EXTT10=
EXTT11=
EXTT12=
PLAYORDER=
